<svg width="20" height="20" viewBox="0 0 20 20" fill="none" xmlns="http://www.w3.org/2000/svg">
<g clip-path="url(#clip0)">
<path d="M14.5646 10.9609L12.385 13.0703C11.756 12.7148 10.5568 11.9492 9.24823 10.6406C7.93964 9.33203 7.1662 8.12109 6.80683 7.48828L8.9162 5.35156L3.59198 0L0.966984 2.60547C-0.0291093 3.60156 -0.286922 5.11719 0.326359 6.375C1.25995 8.29688 2.98261 11.1992 5.88886 14.1016C8.79511 17.0039 11.6935 18.7305 13.6154 19.6641C14.0725 19.8867 14.5607 19.9922 15.0451 19.9922C15.9045 19.9922 16.7521 19.6563 17.385 19.0195L19.9943 16.3984L14.5646 10.9609ZM16.2834 17.9219C15.756 18.4453 14.9592 18.5859 14.299 18.2617C12.4826 17.3789 9.74433 15.7539 6.99433 13C4.24042 10.25 2.61152 7.50781 1.73261 5.69531C1.4123 5.03516 1.54902 4.23438 2.07245 3.71094L3.58808 2.20703L6.72089 5.35938L4.92401 7.17969L5.14276 7.66797C5.17792 7.7461 6.02948 9.62891 8.15058 11.75C10.2717 13.8711 12.1389 14.707 12.217 14.7383L12.6975 14.9492L14.5529 13.1523L17.799 16.4023L16.2834 17.9219ZM12.3693 5.2461L14.6115 3.94922L12.3693 2.65234L13.1506 1.30078L15.4162 2.60938V0.00781298H16.9787V2.58594L19.2014 1.30469L19.9826 2.65625L17.7404 3.95313L19.9826 5.25L19.2014 6.60156L16.9748 5.31641V7.89453H15.4123V5.29297L13.1467 6.60156L12.3693 5.2461Z" fill="#AAB5C6"/>
</g>
<defs>
<clipPath id="clip0">
<rect width="20" height="20" fill="white"/>
</clipPath>
</defs>
</svg>
