<svg width="16" height="16" viewBox="0 0 16 16" fill="none" xmlns="http://www.w3.org/2000/svg">
<path d="M8 0C3.58178 0 0 3.58178 0 8C0 12.4182 3.58178 16 8 16C12.4182 16 16 12.4182 16 8C16 3.58178 12.4182 0 8 0ZM13.7778 8C13.7778 9.14 13.4431 10.2 12.8733 11.0956L4.90489 3.12711C5.8 2.55689 6.86 2.22222 8 2.22222C11.1911 2.22222 13.7778 4.80933 13.7778 8ZM2.22222 8C2.22222 6.86 2.55689 5.8 3.12711 4.90489L11.0956 12.8733C10.2 13.4431 9.14 13.7778 8 13.7778C4.80933 13.7778 2.22222 11.1911 2.22222 8Z" fill="white"/>
</svg>
