<svg width="20" height="20" viewBox="0 0 20 20" fill="none" xmlns="http://www.w3.org/2000/svg">
<path d="M1.22489 19.5859C0.171672 19.5859 -0.292613 18.8208 0.192256 17.886L9.11716 0.701145C9.6026 -0.233715 10.3968 -0.233715 10.8822 0.701145L19.8071 17.8865C20.2932 18.8208 19.8283 19.5859 18.7751 19.5859H1.22489Z" fill="white"/>
<path d="M8.61816 16.1283C8.61816 15.3661 9.23855 14.7457 10.0013 14.7457C10.7635 14.7457 11.3839 15.3661 11.3839 16.1283C11.3839 16.891 10.7629 17.5114 10.0013 17.5114C9.23855 17.5114 8.61816 16.891 8.61816 16.1283ZM8.72451 5.66869C8.72451 4.92423 9.27399 4.46338 10.0007 4.46338C10.7103 4.46338 11.2775 4.94196 11.2775 5.66869V12.4946C11.2775 13.2213 10.7103 13.6999 10.0007 13.6999C9.27399 13.6999 8.72451 13.2385 8.72451 12.4946V5.66869Z" fill="#231F20"/>
</svg>
