<svg width="20" height="20" viewBox="0 0 20 20" fill="none" xmlns="http://www.w3.org/2000/svg">
<path d="M8.85615 0.0611184C4.34834 0.565025 0.684277 4.14706 0.0905271 8.64706C-0.749317 15.0221 4.46162 20.4478 10.778 19.9674C13.1022 19.7916 15.2741 18.7525 16.9772 17.1627L17.1218 17.026C17.2897 16.8697 17.2976 16.6041 17.1413 16.4361L16.571 15.8267C16.4147 15.6588 16.1491 15.651 15.9812 15.8072L15.6765 16.0924C13.7819 17.858 11.1804 18.6549 8.55537 18.2057C4.84053 17.5767 1.98506 14.4166 1.69209 10.6549C1.30928 5.68221 5.321 1.52206 10.2468 1.66659C14.7897 1.7994 18.3327 5.6744 18.3327 10.2213V10.8307C18.3327 11.8033 17.4929 12.5846 16.5007 12.4908C15.6335 12.4049 15.0007 11.6275 15.0007 10.7564V7.08065C15.0007 6.85018 14.8132 6.66268 14.5827 6.66268H13.7507C13.5827 6.66268 13.4421 6.76424 13.3757 6.90487C12.5358 5.99081 11.3366 5.41268 10.0007 5.41268C7.47334 5.41268 5.41865 7.46737 5.41865 9.99471C5.41865 12.5221 7.47334 14.5807 10.0007 14.5807C11.5944 14.5807 12.9968 13.7642 13.8171 12.5299C14.4343 13.565 15.5866 14.2447 16.8952 14.1588C18.6647 14.0416 20.0007 12.4908 20.0007 10.7174V10.0025C20.0007 4.10799 14.8796 -0.610757 8.85615 0.0611184ZM10.0007 12.9166C8.39131 12.9166 7.08271 11.608 7.08271 9.99862C7.08271 8.38924 8.39131 7.08065 10.0007 7.08065C11.6101 7.08065 12.9187 8.38924 12.9187 9.99862C12.9187 11.608 11.6101 12.9166 10.0007 12.9166Z" fill="#AAB5C6"/>
</svg>
