<svg id="Layer_1" enable-background="new 0 0 512 512" height="512" viewBox="0 0 512 512" width="512" xmlns="http://www.w3.org/2000/svg"><g><path d="m485.131 178.836c-.034 0-.069 0-.103.001-4.142.056-7.454 3.46-7.397 7.602 1.066 78.504 1.661 194.065-1.456 302.757-38.056 2.882-233.311 16.018-440.348-.002-.371-12.938-.701-26.406-.983-40.136-.085-4.141-3.498-7.4-7.652-7.345-4.141.085-7.429 3.511-7.344 7.654.333 16.173.731 31.987 1.184 47.003.115 3.821 3.086 6.945 6.896 7.25 78.214 6.286 154.952 8.38 222.54 8.38 134.154-.001 232.186-8.256 233.649-8.382 3.792-.327 6.737-3.443 6.852-7.247 3.346-110.897 2.749-229.863 1.658-310.134-.055-4.109-3.402-7.401-7.496-7.401z"/><path d="m509.195 10.841c-.505-3.583-3.495-6.295-7.109-6.447-2.351-.1-238.131-9.836-492.146-.001-3.625.14-6.629 2.855-7.136 6.448-.256 1.814-6.193 44.887.019 84.068.561 3.536 3.54 6.182 7.117 6.32 3.639.141 7.317.276 10.996.411-.598 24.369-3.82 166.089-1.705 312.471.059 4.105 3.405 7.393 7.496 7.393.037 0 .074 0 .111-.001 4.141-.06 7.45-3.466 7.39-7.609-2.107-145.823 1.092-287.021 1.698-311.725 10.401.352 20.895.68 31.419.977 4.142.118 7.591-3.147 7.708-7.286.117-4.141-3.145-7.593-7.285-7.71-17.17-.484-34.292-1.046-50.988-1.673-3.328-26.84-1.124-55.127.15-67.338 227.67-8.533 439.146-1.463 478.137-.005 1.274 12.207 3.479 40.501.149 67.348-33.534 1.257-197.845 6.798-389.394 2.619-4.135-.077-7.571 3.194-7.661 7.335-.09 4.142 3.193 7.574 7.334 7.663 51.042 1.114 100.152 1.539 145.392 1.539 102.605 0 185.252-2.187 225.183-3.481.182 7.371.597 25.084 1.027 49.961.071 4.098 3.414 7.371 7.496 7.371.044 0 .089 0 .133-.001 4.141-.072 7.44-3.488 7.369-7.63-.434-25.078-.852-42.897-1.034-50.213 6.954-.25 10.77-.408 11.023-.419 3.565-.15 6.531-2.793 7.089-6.319 6.215-39.178.278-82.252.022-84.066z"/><path d="m72.028 45.31h-20.986c-4.142 0-7.5 3.358-7.5 7.501s3.358 7.501 7.5 7.501h20.985c4.142 0 7.5-3.358 7.5-7.501s-3.358-7.501-7.499-7.501z"/><path d="m132.024 60.313c4.142 0 7.5-3.358 7.5-7.501s-3.358-7.501-7.5-7.501h-20.985c-4.142 0-7.5 3.358-7.5 7.501s3.358 7.501 7.5 7.501z"/><path d="m192.02 60.313c4.142 0 7.5-3.358 7.5-7.501s-3.358-7.501-7.5-7.501h-20.985c-4.142 0-7.5 3.358-7.5 7.501s3.358 7.501 7.5 7.501z"/><path d="m114.071 302.728c0-4.143-3.358-7.501-7.5-7.501s-7.5 3.358-7.5 7.501c0 86.918 70.696 157.63 157.593 157.63s157.594-70.712 157.594-157.63-70.697-157.631-157.594-157.631c-36.15 0-70.153 11.91-98.332 34.441-27.348 21.868-46.865 52.566-54.954 86.438-.962 4.029 1.524 8.076 5.552 9.039 4.024.958 8.074-1.524 9.037-5.554 2.716-11.374 6.86-22.351 12.261-32.673 8.143 2.372 24.171 6.597 45.944 10.233-3.551 17.567-5.429 36.37-5.429 55.706 0 19.16 1.844 37.796 5.332 55.226-21.904 3.662-37.985 7.92-46.051 10.277-10.187-19.626-15.953-41.902-15.953-65.502zm186.957 135.552c6.452-7.063 12.414-15.733 17.736-25.921 6.183-11.838 11.227-25.238 15.072-39.695 18.622 3.085 33.003 6.612 41.565 8.952-17.576 26.38-43.695 46.594-74.373 56.664zm98.232-135.552c0 23.6-5.766 45.876-15.954 65.502-8.066-2.357-24.148-6.614-46.052-10.277 3.488-17.429 5.332-36.066 5.332-55.226 0-19.336-1.878-38.139-5.429-55.706 21.754-3.633 37.772-7.854 45.922-10.227 10.328 19.733 16.181 42.161 16.181 65.934zm-24.132-79.304c-8.606 2.349-22.914 5.846-41.414 8.903-3.83-14.28-8.832-27.52-14.95-39.23-5.322-10.188-11.284-18.858-17.736-25.921 30.518 10.017 56.527 30.071 74.1 56.248zm-110.963-62.491c15.283 3.365 29.73 16.95 41.305 39.111 5.388 10.314 9.857 21.938 13.338 34.505-16.117 2.143-34.578 3.764-54.644 4.094v-77.71zm0 92.716c21.51-.336 41.145-2.084 58.159-4.387 3.443 16.774 5.263 34.832 5.263 53.466 0 18.455-1.787 36.344-5.166 52.982-17.037-2.309-36.705-4.063-58.256-4.4zm0 112.668c20.102.333 38.608 1.965 54.767 4.121-3.499 12.745-8.007 24.533-13.461 34.974-11.576 22.161-26.023 35.746-41.305 39.111v-78.206zm-14.999 78.206c-15.283-3.365-29.729-16.95-41.305-39.111-5.454-10.441-9.962-22.229-13.461-34.974 16.158-2.156 34.665-3.788 54.767-4.12v78.205zm0-93.213c-21.551.337-41.219 2.09-58.256 4.4-3.379-16.638-5.166-34.527-5.166-52.982 0-18.634 1.82-36.692 5.263-53.466 17.015 2.303 36.649 4.05 58.159 4.387zm0-190.377v77.71c-20.049-.332-38.513-1.956-54.641-4.103 3.48-12.563 7.949-24.184 13.335-34.495 11.576-22.162 26.023-35.747 41.306-39.112zm-110.985 62.479c8.102-12.092 18.047-22.981 29.518-32.154 13.581-10.859 28.658-18.989 44.728-24.218-6.5 7.087-12.504 15.804-17.86 26.057-6.116 11.708-11.117 24.944-14.947 39.219-18.506-3.06-32.83-6.559-41.439-8.904zm41.313 149.252c3.845 14.457 8.889 27.857 15.072 39.695 5.322 10.188 11.284 18.858 17.736 25.921-30.678-10.07-56.797-30.284-74.373-56.664 8.562-2.34 22.942-5.867 41.565-8.952z"/></g></svg>