<svg width="65" height="74" viewBox="0 0 65 74" fill="none" xmlns="http://www.w3.org/2000/svg">
<g clip-path="url(#clip0)">
<path d="M0.958252 10.6877C0.958252 4.78504 5.78692 0 11.7434 0H52.8618C58.8182 0 63.6468 4.78504 63.6468 10.6877C63.6468 16.5903 58.8182 21.3753 52.8618 21.3753H11.7434C5.78692 21.3753 0.958252 16.5903 0.958252 10.6877Z" fill="#2262C6"/>
<path d="M21.8545 10.6877C21.8545 4.78504 26.6832 0 32.6397 0H52.8617C58.8182 0 63.6469 4.78504 63.6469 10.6877C63.6469 16.5903 58.8182 21.3753 52.8617 21.3753H32.6397C26.6832 21.3753 21.8545 16.5903 21.8545 10.6877Z" fill="#03A9F4"/>
<path d="M36.01 10.6877C36.01 4.78504 40.8387 0 46.7952 0H52.8618C58.8182 0 63.6469 4.78504 63.6469 10.6877C63.6469 16.5903 58.8182 21.3753 52.8617 21.3753H46.7952C40.8387 21.3753 36.01 16.5903 36.01 10.6877Z" fill="#27D086"/>
<path d="M11.0693 73.005C5.11285 73.005 0.28418 68.22 0.28418 62.3173V46.2859C0.28418 40.3832 5.11285 35.5981 11.0693 35.5981C17.0258 35.5981 21.8544 40.3832 21.8544 46.2859V62.3173C21.8544 68.22 17.0258 73.005 11.0693 73.005Z" fill="#27D086"/>
<path d="M11.0693 62.3173C5.11285 62.3173 0.28418 57.5323 0.28418 51.6296V35.5981C0.28418 29.6954 5.11285 24.9104 11.0693 24.9104C17.0258 24.9104 21.8544 29.6954 21.8544 35.5981V51.6296C21.8544 57.5323 17.0258 62.3173 11.0693 62.3173Z" fill="#03A9F4"/>
<path d="M0.28418 35.5981C0.28418 29.6954 5.11285 24.9104 11.0693 24.9104H31.2914C37.2479 24.9104 42.0766 29.6954 42.0766 35.5981C42.0766 41.5008 37.2479 46.2858 31.2914 46.2858H11.0693C5.11286 46.2858 0.28418 41.5008 0.28418 35.5981Z" fill="#2262C6"/>
</g>
<defs>
<clipPath id="clip0">
<rect x="0.28418" width="64.4619" height="73.0051" fill="white"/>
</clipPath>
</defs>
</svg>
