<svg width="206" height="114" viewBox="0 0 206 114" fill="none" xmlns="http://www.w3.org/2000/svg">
<path d="M15.2693 110C-8.76322 -18.3123 -2.43887 -18.3123 34.2424 110C10.2098 -23.5496 16.5342 -23.5496 53.2155 110C29.1829 -35.3333 35.5073 -35.3333 72.1885 110C48.156 -14.0571 54.4803 -14.0571 91.1616 110C67.129 -0.963965 73.4534 -0.963965 110.135 110C86.1021 3.29129 92.4265 3.29129 129.108 110C105.075 -21.5856 111.4 -21.5856 148.081 110C124.048 -17.003 130.373 -17.003 167.054 110C143.021 65.1562 149.346 65.1562 186.027 110C161.994 -24.8589 168.319 -24.8589 205 110" stroke="white" stroke-width="2"/>
</svg>
