<svg width="29" height="29" viewBox="0 0 29 29" fill="none" xmlns="http://www.w3.org/2000/svg">
<path d="M28.5 14.5C28.5 22.232 22.232 28.5 14.5 28.5C6.76801 28.5 0.5 22.232 0.5 14.5C0.5 6.76801 6.76801 0.5 14.5 0.5C22.232 0.5 28.5 6.76801 28.5 14.5Z" stroke="#2262C6"/>
<path d="M13.8848 7.11719H15.1152C15.2246 7.11719 15.2793 7.17187 15.2793 7.28125V21.7188C15.2793 21.8281 15.2246 21.8828 15.1152 21.8828H13.8848C13.7754 21.8828 13.7207 21.8281 13.7207 21.7188V7.28125C13.7207 7.17187 13.7754 7.11719 13.8848 7.11719Z" fill="#2262C6"/>
<path d="M7.60938 13.7207H21.3906C21.5 13.7207 21.5547 13.7754 21.5547 13.8848V15.1152C21.5547 15.2246 21.5 15.2793 21.3906 15.2793H7.60938C7.5 15.2793 7.44531 15.2246 7.44531 15.1152V13.8848C7.44531 13.7754 7.5 13.7207 7.60938 13.7207Z" fill="#2262C6"/>
</svg>
