<svg width="30" height="30" viewBox="0 0 30 30" fill="none" xmlns="http://www.w3.org/2000/svg">
<circle cx="15" cy="15" r="15" fill="#2262C6"/>
<path d="M15.287 15.4968L21.1964 9.58167C21.3006 9.4769 21.3591 9.33509 21.359 9.18729C21.3589 9.03949 21.3002 8.89775 21.1959 8.79312C20.9869 8.58522 20.6189 8.58417 20.4078 8.79417L14.5 14.7093L8.59008 8.79259C8.38008 8.58522 8.01206 8.58627 7.80311 8.79364C7.75124 8.8453 7.71019 8.90677 7.68233 8.97446C7.65448 9.04216 7.64039 9.11472 7.64088 9.18792C7.64088 9.33702 7.69863 9.47667 7.80311 9.58009L13.7125 15.4963L7.80363 21.4131C7.69936 21.518 7.64097 21.66 7.64126 21.8079C7.64156 21.9559 7.70052 22.0976 7.80521 22.2021C7.90653 22.3024 8.04986 22.3602 8.19791 22.3602H8.20106C8.34963 22.3596 8.49296 22.3014 8.59218 22.2L14.5 16.2849L20.4099 22.2016C20.5144 22.3056 20.6541 22.3633 20.8021 22.3633C20.8753 22.3635 20.9478 22.3493 21.0155 22.3213C21.0832 22.2934 21.1447 22.2524 21.1964 22.2006C21.2482 22.1489 21.2892 22.0874 21.3172 22.0197C21.3451 21.952 21.3593 21.8795 21.3591 21.8063C21.3591 21.6577 21.3014 21.5175 21.1964 21.4141L15.287 15.4968Z" fill="white"/>
</svg>
