<svg width="27" height="27" viewBox="0 0 27 27" fill="none" xmlns="http://www.w3.org/2000/svg">
<g opacity="0.25" clip-path="url(#clip0)">
<path d="M1.45756 9.58244C1.28391 14.2259 4.97159 18.1437 9.64224 18.3183C11.6245 18.3925 13.4422 17.7806 14.9502 16.7221L22.7438 25.0083C23.2153 25.4882 23.9756 25.5166 24.4545 25.0723C24.7081 24.837 24.8279 24.5424 24.839 24.2437C24.8512 23.9178 24.7538 23.615 24.5185 23.3615L16.7249 15.0753C17.7814 13.728 18.4147 12.0657 18.4827 10.2463C18.6563 5.60285 14.9687 1.68513 10.298 1.51045C5.62736 1.33578 1.63122 4.93895 1.45756 9.58244ZM16.3385 10.139C16.2095 13.5876 13.2536 16.278 9.75064 16.147C6.24765 16.016 3.50098 13.1124 3.62996 9.66369C3.75893 6.21501 6.7148 3.52468 10.2178 3.65569C13.7208 3.78669 16.4674 6.69028 16.3385 10.139ZM10.2502 5.69637C10.7098 5.76795 11.0476 6.18847 11.0304 6.65011C11.0283 6.70442 11.0273 6.73157 11.0253 6.78588C10.9245 7.29878 10.4497 7.63453 9.93577 7.56092C8.53083 7.31803 7.73874 8.8656 7.70854 8.94605C7.47404 9.39956 6.89566 9.59547 6.44215 9.36097C5.98864 9.12646 5.79171 8.57524 6.00008 8.09356C6.03129 7.98595 7.44035 5.21059 10.2502 5.69637ZM12.2399 7.75586C12.4371 7.57289 12.7409 7.44828 13.0124 7.45844C13.3111 7.46961 13.5786 7.58839 13.7606 7.81273C13.9435 8.00993 14.0681 8.31371 14.058 8.58526C14.0478 8.85681 13.928 9.15145 13.7037 9.33341C13.5065 9.51638 13.2027 9.64099 12.9312 9.63083C12.6596 9.62068 12.365 9.50089 12.183 9.27654C12 9.07935 11.8754 8.77556 11.8856 8.50402C11.8957 8.23247 12.0145 7.96498 12.2399 7.75586Z" fill="black"/>
</g>
<defs>
<clipPath id="clip0">
<rect width="25" height="25" fill="white" transform="translate(0.273193 25.2557) rotate(-87.8583)"/>
</clipPath>
</defs>
</svg>
