<svg width="30" height="30" viewBox="0 0 30 30" fill="none" xmlns="http://www.w3.org/2000/svg">
<path d="M3.57422 8.2346L17.3437 0.295145C17.8711 0.00217604 18.4228 -0.0661834 18.999 0.0900667C19.5752 0.246317 20.0098 0.578348 20.3027 1.08616L29.707 17.3459C29.9609 17.7951 30.0488 18.2639 29.9707 18.7522C23.9746 18.7522 18.5742 17.7756 13.7695 15.8225C8.96484 13.8694 5.56641 11.3401 3.57422 8.2346ZM28.3887 20.5979L12.627 29.7092C12.1191 30.0022 11.5771 30.0754 11.001 29.9289C10.4248 29.7825 9.98047 29.4455 9.66797 28.9182L0 13.1272C2.77344 15.3733 6.7041 17.1701 11.792 18.5178C16.8799 19.8655 22.4121 20.5588 28.3887 20.5979Z" fill="#8E8EA8"/>
</svg>
