<svg width="242" height="51" viewBox="0 0 242 51" fill="none" xmlns="http://www.w3.org/2000/svg">
<path d="M0.386841 6.14865C0.386841 2.75284 3.15841 0 6.57732 0H30.1785C33.5974 0 36.369 2.75284 36.369 6.14865C36.369 9.54443 33.5974 12.2973 30.1785 12.2973H6.57732C3.15841 12.2973 0.386841 9.54443 0.386841 6.14865Z" fill="#2262C6"/>
<path d="M12.381 6.14865C12.381 2.75284 15.1525 0 18.5715 0H30.1786C33.5975 0 36.3691 2.75284 36.3691 6.14865C36.3691 9.54443 33.5975 12.2973 30.1786 12.2973H18.5715C15.1525 12.2973 12.381 9.54443 12.381 6.14865Z" fill="#639CF6" fill-opacity="0.5"/>
<path d="M20.506 6.14865C20.506 2.75284 23.2775 0 26.6965 0H30.1786C33.5975 0 36.3691 2.75284 36.3691 6.14865C36.3691 9.54443 33.5975 12.2973 30.1786 12.2973H26.6965C23.2775 12.2973 20.506 9.54443 20.506 6.14865Z" fill="#FFC5A0"/>
<path d="M6.19048 42C2.77157 42 0 39.2472 0 35.8513V26.6284C0 23.2326 2.77157 20.4797 6.19048 20.4797C9.60936 20.4797 12.3809 23.2326 12.3809 26.6284V35.8513C12.3809 39.2472 9.60936 42 6.19048 42Z" fill="#FFC5A0"/>
<path d="M6.19048 35.8513C2.77157 35.8513 0 33.0985 0 29.7027V20.4797C0 17.0839 2.77157 14.3311 6.19048 14.3311C9.60936 14.3311 12.3809 17.0839 12.3809 20.4797V29.7027C12.3809 33.0985 9.60936 35.8513 6.19048 35.8513Z" fill="#427FDE"/>
<path d="M0 20.4797C0 17.0839 2.77157 14.3311 6.19048 14.3311H17.7976C21.2165 14.3311 23.9881 17.0839 23.9881 20.4797C23.9881 23.8756 21.2165 26.6284 17.7976 26.6284H6.19048C2.77158 26.6284 0 23.8756 0 20.4797Z" fill="#2262C6"/>
<path d="M54.184 12.48C52.2053 12.3307 51.216 13.124 51.216 14.86V15H54.184V18.472H51.216V29H47.604V18.472H45.588V15H47.604V14.86C47.604 12.8813 48.1547 11.3787 49.256 10.352C50.3573 9.32533 52 8.87733 54.184 9.008V12.48ZM65.96 15H69.572V29H65.96V27.348C64.8773 28.7107 63.356 29.392 61.396 29.392C59.5293 29.392 57.924 28.6827 56.58 27.264C55.2546 25.8267 54.592 24.072 54.592 22C54.592 19.928 55.2546 18.1827 56.58 16.764C57.924 15.3267 59.5293 14.608 61.396 14.608C63.356 14.608 64.8773 15.2893 65.96 16.652V15ZM59.296 24.856C60.024 25.584 60.948 25.948 62.068 25.948C63.188 25.948 64.112 25.584 64.84 24.856C65.5866 24.1093 65.96 23.1573 65.96 22C65.96 20.8427 65.5866 19.9 64.84 19.172C64.112 18.4253 63.188 18.052 62.068 18.052C60.948 18.052 60.024 18.4253 59.296 19.172C58.568 19.9 58.204 20.8427 58.204 22C58.204 23.1573 58.568 24.1093 59.296 24.856ZM80.8553 18.472H77.6913V24.296C77.6913 24.7813 77.8126 25.136 78.0553 25.36C78.298 25.584 78.6526 25.7147 79.1193 25.752C79.586 25.7707 80.1646 25.7613 80.8553 25.724V29C78.3726 29.28 76.618 29.0467 75.5913 28.3C74.5833 27.5533 74.0793 26.2187 74.0793 24.296V18.472H71.6433V15H74.0793V12.172L77.6913 11.08V15H80.8553V18.472ZM94.8925 27.264C93.4552 28.6827 91.7005 29.392 89.6285 29.392C87.5565 29.392 85.8018 28.6827 84.3645 27.264C82.9458 25.8267 82.2365 24.072 82.2365 22C82.2365 19.928 82.9458 18.1827 84.3645 16.764C85.8018 15.3267 87.5565 14.608 89.6285 14.608C91.7005 14.608 93.4552 15.3267 94.8925 16.764C96.3298 18.1827 97.0485 19.928 97.0485 22C97.0485 24.072 96.3298 25.8267 94.8925 27.264ZM86.9125 24.772C87.6405 25.5 88.5458 25.864 89.6285 25.864C90.7112 25.864 91.6165 25.5 92.3445 24.772C93.0725 24.044 93.4365 23.12 93.4365 22C93.4365 20.88 93.0725 19.956 92.3445 19.228C91.6165 18.5 90.7112 18.136 89.6285 18.136C88.5458 18.136 87.6405 18.5 86.9125 19.228C86.2032 19.956 85.8485 20.88 85.8485 22C85.8485 23.12 86.2032 24.044 86.9125 24.772ZM108.83 15H112.442V29H108.83V27.432C107.952 28.7387 106.562 29.392 104.658 29.392C103.127 29.392 101.858 28.8787 100.85 27.852C99.8602 26.8253 99.3655 25.4067 99.3655 23.596V15H102.978V23.148C102.978 24.0813 103.23 24.8 103.734 25.304C104.238 25.7893 104.91 26.032 105.75 26.032C106.683 26.032 107.43 25.7427 107.99 25.164C108.55 24.5853 108.83 23.7173 108.83 22.56V15ZM119.362 17.408C119.698 16.512 120.248 15.84 121.014 15.392C121.798 14.944 122.666 14.72 123.618 14.72V18.752C122.516 18.6213 121.527 18.8453 120.65 19.424C119.791 20.0027 119.362 20.964 119.362 22.308V29H115.75V15H119.362V17.408ZM135.851 15H139.463V29H135.851V27.348C134.768 28.7107 133.247 29.392 131.287 29.392C129.42 29.392 127.815 28.6827 126.471 27.264C125.145 25.8267 124.483 24.072 124.483 22C124.483 19.928 125.145 18.1827 126.471 16.764C127.815 15.3267 129.42 14.608 131.287 14.608C133.247 14.608 134.768 15.2893 135.851 16.652V15ZM129.187 24.856C129.915 25.584 130.839 25.948 131.959 25.948C133.079 25.948 134.003 25.584 134.731 24.856C135.477 24.1093 135.851 23.1573 135.851 22C135.851 20.8427 135.477 19.9 134.731 19.172C134.003 18.4253 133.079 18.052 131.959 18.052C130.839 18.052 129.915 18.4253 129.187 19.172C128.459 19.9 128.095 20.8427 128.095 22C128.095 23.1573 128.459 24.1093 129.187 24.856Z" fill="#2262C6"/>
<path d="M50.59 41.5H51.5L48.835 48H47.795L45.13 41.5H46.04L48.315 47.103L50.59 41.5ZM57.73 47.181C57.0714 47.831 56.2654 48.156 55.312 48.156C54.3587 48.156 53.5484 47.831 52.881 47.181C52.2224 46.5223 51.893 45.712 51.893 44.75C51.893 43.788 52.2224 42.982 52.881 42.332C53.5484 41.6733 54.3587 41.344 55.312 41.344C56.2654 41.344 57.0714 41.6733 57.73 42.332C58.3974 42.982 58.731 43.788 58.731 44.75C58.731 45.712 58.3974 46.5223 57.73 47.181ZM53.492 46.583C53.986 47.077 54.5927 47.324 55.312 47.324C56.0314 47.324 56.638 47.077 57.132 46.583C57.626 46.0803 57.873 45.4693 57.873 44.75C57.873 44.0307 57.626 43.424 57.132 42.93C56.638 42.4273 56.0314 42.176 55.312 42.176C54.5927 42.176 53.986 42.4273 53.492 42.93C52.998 43.424 52.751 44.0307 52.751 44.75C52.751 45.4693 52.998 46.0803 53.492 46.583ZM63.4849 42.332H61.6129V46.271C61.6129 46.6263 61.6822 46.882 61.8209 47.038C61.9595 47.1853 62.1675 47.2633 62.4449 47.272C62.7222 47.272 63.0689 47.2633 63.4849 47.246V48C62.5749 48.1387 61.8902 48.0737 61.4309 47.805C60.9802 47.5363 60.7549 47.025 60.7549 46.271V42.332H59.3899V41.5H60.7549V39.94L61.6129 39.68V41.5H63.4849V42.332ZM65.7729 42.579C66.1715 41.7903 66.8562 41.396 67.8269 41.396V42.228C67.2375 42.228 66.7479 42.4013 66.3579 42.748C65.9679 43.0947 65.7729 43.6407 65.7729 44.386V48H64.9149V41.5H65.7729V42.579ZM71.6122 41.344C72.5742 41.344 73.3499 41.6863 73.9392 42.371C74.5372 43.047 74.8362 43.8487 74.8362 44.776C74.8362 44.8713 74.8276 45.0057 74.8102 45.179H69.1032C69.1899 45.8377 69.4672 46.362 69.9352 46.752C70.4119 47.1333 70.9969 47.324 71.6902 47.324C72.1842 47.324 72.6089 47.2243 72.9642 47.025C73.3282 46.817 73.6012 46.5483 73.7832 46.219L74.5372 46.661C74.2512 47.1203 73.8612 47.4843 73.3672 47.753C72.8732 48.0217 72.3099 48.156 71.6772 48.156C70.6546 48.156 69.8226 47.8353 69.1812 47.194C68.5399 46.5527 68.2192 45.738 68.2192 44.75C68.2192 43.7793 68.5356 42.969 69.1682 42.319C69.8009 41.669 70.6156 41.344 71.6122 41.344ZM71.6122 42.176C70.9362 42.176 70.3686 42.3797 69.9092 42.787C69.4586 43.1857 69.1899 43.7057 69.1032 44.347H73.9522C73.8656 43.6623 73.6012 43.1293 73.1592 42.748C72.7172 42.3667 72.2016 42.176 71.6122 42.176ZM84.898 47.181C84.2393 47.831 83.4333 48.156 82.48 48.156C81.5267 48.156 80.7163 47.831 80.049 47.181C79.3903 46.5223 79.061 45.712 79.061 44.75C79.061 43.788 79.3903 42.982 80.049 42.332C80.7163 41.6733 81.5267 41.344 82.48 41.344C83.4333 41.344 84.2393 41.6733 84.898 42.332C85.5653 42.982 85.899 43.788 85.899 44.75C85.899 45.712 85.5653 46.5223 84.898 47.181ZM80.66 46.583C81.154 47.077 81.7607 47.324 82.48 47.324C83.1993 47.324 83.806 47.077 84.3 46.583C84.794 46.0803 85.041 45.4693 85.041 44.75C85.041 44.0307 84.794 43.424 84.3 42.93C83.806 42.4273 83.1993 42.176 82.48 42.176C81.7607 42.176 81.154 42.4273 80.66 42.93C80.166 43.424 79.919 44.0307 79.919 44.75C79.919 45.4693 80.166 46.0803 80.66 46.583ZM91.9108 41.5H92.7688V48H91.9108V46.986C91.4255 47.766 90.6975 48.156 89.7268 48.156C88.9381 48.156 88.3141 47.9177 87.8548 47.441C87.4041 46.9557 87.1788 46.3057 87.1788 45.491V41.5H88.0368V45.491C88.0368 46.0717 88.1885 46.5223 88.4918 46.843C88.8038 47.1637 89.2415 47.324 89.8048 47.324C90.4288 47.324 90.9358 47.129 91.3258 46.739C91.7158 46.3403 91.9108 45.7293 91.9108 44.906V41.5ZM98.0288 42.332H96.1568V46.271C96.1568 46.6263 96.2262 46.882 96.3648 47.038C96.5035 47.1853 96.7115 47.2633 96.9888 47.272C97.2662 47.272 97.6128 47.2633 98.0288 47.246V48C97.1188 48.1387 96.4342 48.0737 95.9748 47.805C95.5242 47.5363 95.2988 47.025 95.2988 46.271V42.332H93.9338V41.5H95.2988V39.94L96.1568 39.68V41.5H98.0288V42.332ZM100.33 39.94C100.208 40.0613 100.061 40.122 99.8878 40.122C99.7145 40.122 99.5672 40.0613 99.4458 39.94C99.3245 39.8187 99.2638 39.6713 99.2638 39.498C99.2638 39.3247 99.3245 39.1773 99.4458 39.056C99.5672 38.9347 99.7145 38.874 99.8878 38.874C100.061 38.874 100.208 38.9347 100.33 39.056C100.451 39.1773 100.512 39.3247 100.512 39.498C100.512 39.6713 100.451 39.8187 100.33 39.94ZM99.4588 48V41.5H100.317V48H99.4588ZM102.138 48V38.51H102.996V48H102.138ZM113.656 38.9H114.514V48H113.656V46.726C113.058 47.6793 112.183 48.156 111.03 48.156C110.103 48.156 109.31 47.8267 108.651 47.168C108.001 46.5093 107.676 45.7033 107.676 44.75C107.676 43.7967 108.001 42.9907 108.651 42.332C109.31 41.6733 110.103 41.344 111.03 41.344C112.183 41.344 113.058 41.8207 113.656 42.774V38.9ZM109.275 46.583C109.769 47.077 110.376 47.324 111.095 47.324C111.815 47.324 112.421 47.077 112.915 46.583C113.409 46.0803 113.656 45.4693 113.656 44.75C113.656 44.0307 113.409 43.424 112.915 42.93C112.421 42.4273 111.815 42.176 111.095 42.176C110.376 42.176 109.769 42.4273 109.275 42.93C108.781 43.424 108.534 44.0307 108.534 44.75C108.534 45.4693 108.781 46.0803 109.275 46.583ZM119.334 41.344C120.296 41.344 121.072 41.6863 121.661 42.371C122.259 43.047 122.558 43.8487 122.558 44.776C122.558 44.8713 122.549 45.0057 122.532 45.179H116.825C116.912 45.8377 117.189 46.362 117.657 46.752C118.134 47.1333 118.719 47.324 119.412 47.324C119.906 47.324 120.331 47.2243 120.686 47.025C121.05 46.817 121.323 46.5483 121.505 46.219L122.259 46.661C121.973 47.1203 121.583 47.4843 121.089 47.753C120.595 48.0217 120.032 48.156 119.399 48.156C118.376 48.156 117.544 47.8353 116.903 47.194C116.262 46.5527 115.941 45.738 115.941 44.75C115.941 43.7793 116.257 42.969 116.89 42.319C117.523 41.669 118.337 41.344 119.334 41.344ZM119.334 42.176C118.658 42.176 118.09 42.3797 117.631 42.787C117.18 43.1857 116.912 43.7057 116.825 44.347H121.674C121.587 43.6623 121.323 43.1293 120.881 42.748C120.439 42.3667 119.923 42.176 119.334 42.176ZM130.423 39.576C129.79 39.524 129.318 39.6323 129.006 39.901C128.702 40.1697 128.551 40.616 128.551 41.24V41.5H130.423V42.332H128.551V48H127.693V42.332H126.588V41.5H127.693V41.24C127.693 40.3907 127.927 39.7493 128.395 39.316C128.871 38.874 129.547 38.6833 130.423 38.744V39.576ZM136.533 41.5H137.391V48H136.533V46.726C135.935 47.6793 135.06 48.156 133.907 48.156C132.98 48.156 132.187 47.8267 131.528 47.168C130.878 46.5093 130.553 45.7033 130.553 44.75C130.553 43.7967 130.878 42.9907 131.528 42.332C132.187 41.6733 132.98 41.344 133.907 41.344C135.06 41.344 135.935 41.8207 136.533 42.774V41.5ZM132.152 46.583C132.646 47.077 133.253 47.324 133.972 47.324C134.692 47.324 135.298 47.077 135.792 46.583C136.286 46.0803 136.533 45.4693 136.533 44.75C136.533 44.0307 136.286 43.424 135.792 42.93C135.298 42.4273 134.692 42.176 133.972 42.176C133.253 42.176 132.646 42.4273 132.152 42.93C131.658 43.424 131.411 44.0307 131.411 44.75C131.411 45.4693 131.658 46.0803 132.152 46.583ZM142.237 48.156C141.258 48.156 140.443 47.831 139.793 47.181C139.143 46.5223 138.818 45.712 138.818 44.75C138.818 43.788 139.143 42.982 139.793 42.332C140.443 41.6733 141.258 41.344 142.237 41.344C142.878 41.344 143.455 41.5 143.966 41.812C144.477 42.1153 144.85 42.527 145.084 43.047L144.382 43.45C144.209 43.06 143.927 42.7523 143.537 42.527C143.156 42.293 142.722 42.176 142.237 42.176C141.518 42.176 140.911 42.4273 140.417 42.93C139.923 43.424 139.676 44.0307 139.676 44.75C139.676 45.4693 139.923 46.0803 140.417 46.583C140.911 47.077 141.518 47.324 142.237 47.324C142.722 47.324 143.156 47.2113 143.537 46.986C143.918 46.752 144.217 46.44 144.434 46.05L145.149 46.466C144.88 46.986 144.486 47.3977 143.966 47.701C143.446 48.0043 142.87 48.156 142.237 48.156ZM149.826 42.332H147.954V46.271C147.954 46.6263 148.023 46.882 148.162 47.038C148.3 47.1853 148.508 47.2633 148.786 47.272C149.063 47.272 149.41 47.2633 149.826 47.246V48C148.916 48.1387 148.231 48.0737 147.772 47.805C147.321 47.5363 147.096 47.025 147.096 46.271V42.332H145.731V41.5H147.096V39.94L147.954 39.68V41.5H149.826V42.332ZM155.832 41.5H156.69V48H155.832V46.986C155.346 47.766 154.618 48.156 153.648 48.156C152.859 48.156 152.235 47.9177 151.776 47.441C151.325 46.9557 151.1 46.3057 151.1 45.491V41.5H151.958V45.491C151.958 46.0717 152.109 46.5223 152.413 46.843C152.725 47.1637 153.162 47.324 153.726 47.324C154.35 47.324 154.857 47.129 155.247 46.739C155.637 46.3403 155.832 45.7293 155.832 44.906V41.5ZM159.363 42.579C159.761 41.7903 160.446 41.396 161.417 41.396V42.228C160.827 42.228 160.338 42.4013 159.948 42.748C159.558 43.0947 159.363 43.6407 159.363 44.386V48H158.505V41.5H159.363V42.579ZM167.789 41.5H168.647V48H167.789V46.726C167.191 47.6793 166.316 48.156 165.163 48.156C164.236 48.156 163.443 47.8267 162.784 47.168C162.134 46.5093 161.809 45.7033 161.809 44.75C161.809 43.7967 162.134 42.9907 162.784 42.332C163.443 41.6733 164.236 41.344 165.163 41.344C166.316 41.344 167.191 41.8207 167.789 42.774V41.5ZM163.408 46.583C163.902 47.077 164.509 47.324 165.228 47.324C165.947 47.324 166.554 47.077 167.048 46.583C167.542 46.0803 167.789 45.4693 167.789 44.75C167.789 44.0307 167.542 43.424 167.048 42.93C166.554 42.4273 165.947 42.176 165.228 42.176C164.509 42.176 163.902 42.4273 163.408 42.93C162.914 43.424 162.667 44.0307 162.667 44.75C162.667 45.4693 162.914 46.0803 163.408 46.583ZM173.909 42.332H172.037V46.271C172.037 46.6263 172.106 46.882 172.245 47.038C172.383 47.1853 172.591 47.2633 172.869 47.272C173.146 47.272 173.493 47.2633 173.909 47.246V48C172.999 48.1387 172.314 48.0737 171.855 47.805C171.404 47.5363 171.179 47.025 171.179 46.271V42.332H169.814V41.5H171.179V39.94L172.037 39.68V41.5H173.909V42.332ZM176.21 39.94C176.088 40.0613 175.941 40.122 175.768 40.122C175.594 40.122 175.447 40.0613 175.326 39.94C175.204 39.8187 175.144 39.6713 175.144 39.498C175.144 39.3247 175.204 39.1773 175.326 39.056C175.447 38.9347 175.594 38.874 175.768 38.874C175.941 38.874 176.088 38.9347 176.21 39.056C176.331 39.1773 176.392 39.3247 176.392 39.498C176.392 39.6713 176.331 39.8187 176.21 39.94ZM175.339 48V41.5H176.197V48H175.339ZM183.464 47.181C182.806 47.831 182 48.156 181.046 48.156C180.093 48.156 179.283 47.831 178.615 47.181C177.957 46.5223 177.627 45.712 177.627 44.75C177.627 43.788 177.957 42.982 178.615 42.332C179.283 41.6733 180.093 41.344 181.046 41.344C182 41.344 182.806 41.6733 183.464 42.332C184.132 42.982 184.465 43.788 184.465 44.75C184.465 45.712 184.132 46.5223 183.464 47.181ZM179.226 46.583C179.72 47.077 180.327 47.324 181.046 47.324C181.766 47.324 182.372 47.077 182.866 46.583C183.36 46.0803 183.607 45.4693 183.607 44.75C183.607 44.0307 183.36 43.424 182.866 42.93C182.372 42.4273 181.766 42.176 181.046 42.176C180.327 42.176 179.72 42.4273 179.226 42.93C178.732 43.424 178.485 44.0307 178.485 44.75C178.485 45.4693 178.732 46.0803 179.226 46.583ZM188.943 41.344C189.732 41.344 190.352 41.5867 190.802 42.072C191.262 42.5487 191.491 43.1943 191.491 44.009V48H190.633V44.009C190.633 43.4283 190.477 42.9777 190.165 42.657C189.862 42.3363 189.429 42.176 188.865 42.176C188.241 42.176 187.734 42.3753 187.344 42.774C186.954 43.164 186.759 43.7707 186.759 44.594V48H185.901V41.5H186.759V42.514C187.245 41.734 187.973 41.344 188.943 41.344ZM199.403 41.344C200.365 41.344 201.141 41.6863 201.73 42.371C202.328 43.047 202.627 43.8487 202.627 44.776C202.627 44.8713 202.619 45.0057 202.601 45.179H196.894C196.981 45.8377 197.258 46.362 197.726 46.752C198.203 47.1333 198.788 47.324 199.481 47.324C199.975 47.324 200.4 47.2243 200.755 47.025C201.119 46.817 201.392 46.5483 201.574 46.219L202.328 46.661C202.042 47.1203 201.652 47.4843 201.158 47.753C200.664 48.0217 200.101 48.156 199.468 48.156C198.446 48.156 197.614 47.8353 196.972 47.194C196.331 46.5527 196.01 45.738 196.01 44.75C196.01 43.7793 196.327 42.969 196.959 42.319C197.592 41.669 198.407 41.344 199.403 41.344ZM199.403 42.176C198.727 42.176 198.16 42.3797 197.7 42.787C197.25 43.1857 196.981 43.7057 196.894 44.347H201.743C201.657 43.6623 201.392 43.1293 200.95 42.748C200.508 42.3667 199.993 42.176 199.403 42.176ZM207.247 42.332H205.375V46.271C205.375 46.6263 205.444 46.882 205.583 47.038C205.721 47.1853 205.929 47.2633 206.207 47.272C206.484 47.272 206.831 47.2633 207.247 47.246V48C206.337 48.1387 205.652 48.0737 205.193 47.805C204.742 47.5363 204.517 47.025 204.517 46.271V42.332H203.152V41.5H204.517V39.94L205.375 39.68V41.5H207.247V42.332ZM217.517 38.9H218.375V48H217.517V46.726C216.919 47.6793 216.043 48.156 214.891 48.156C213.963 48.156 213.17 47.8267 212.512 47.168C211.862 46.5093 211.537 45.7033 211.537 44.75C211.537 43.7967 211.862 42.9907 212.512 42.332C213.17 41.6733 213.963 41.344 214.891 41.344C216.043 41.344 216.919 41.8207 217.517 42.774V38.9ZM213.136 46.583C213.63 47.077 214.236 47.324 214.956 47.324C215.675 47.324 216.282 47.077 216.776 46.583C217.27 46.0803 217.517 45.4693 217.517 44.75C217.517 44.0307 217.27 43.424 216.776 42.93C216.282 42.4273 215.675 42.176 214.956 42.176C214.236 42.176 213.63 42.4273 213.136 42.93C212.642 43.424 212.395 44.0307 212.395 44.75C212.395 45.4693 212.642 46.0803 213.136 46.583ZM223.194 41.344C224.156 41.344 224.932 41.6863 225.521 42.371C226.119 43.047 226.418 43.8487 226.418 44.776C226.418 44.8713 226.41 45.0057 226.392 45.179H220.685C220.772 45.8377 221.049 46.362 221.517 46.752C221.994 47.1333 222.579 47.324 223.272 47.324C223.766 47.324 224.191 47.2243 224.546 47.025C224.91 46.817 225.183 46.5483 225.365 46.219L226.119 46.661C225.833 47.1203 225.443 47.4843 224.949 47.753C224.455 48.0217 223.892 48.156 223.259 48.156C222.237 48.156 221.405 47.8353 220.763 47.194C220.122 46.5527 219.801 45.738 219.801 44.75C219.801 43.7793 220.118 42.969 220.75 42.319C221.383 41.669 222.198 41.344 223.194 41.344ZM223.194 42.176C222.518 42.176 221.951 42.3797 221.491 42.787C221.041 43.1857 220.772 43.7057 220.685 44.347H225.534C225.448 43.6623 225.183 43.1293 224.741 42.748C224.299 42.3667 223.784 42.176 223.194 42.176ZM232.209 41.5H233.119L230.454 48H229.414L226.749 41.5H227.659L229.934 47.103L232.209 41.5ZM235.027 39.94C234.906 40.0613 234.758 40.122 234.585 40.122C234.412 40.122 234.264 40.0613 234.143 39.94C234.022 39.8187 233.961 39.6713 233.961 39.498C233.961 39.3247 234.022 39.1773 234.143 39.056C234.264 38.9347 234.412 38.874 234.585 38.874C234.758 38.874 234.906 38.9347 235.027 39.056C235.148 39.1773 235.209 39.3247 235.209 39.498C235.209 39.6713 235.148 39.8187 235.027 39.94ZM234.156 48V41.5H235.014V48H234.156ZM237.511 43.203C237.511 43.4977 237.641 43.7317 237.901 43.905C238.161 44.0783 238.477 44.2127 238.85 44.308C239.222 44.4033 239.595 44.5117 239.968 44.633C240.34 44.7457 240.657 44.9407 240.917 45.218C241.177 45.4867 241.307 45.842 241.307 46.284C241.307 46.8387 241.086 47.2893 240.644 47.636C240.21 47.9827 239.647 48.156 238.954 48.156C238.33 48.156 237.797 48.0173 237.355 47.74C236.921 47.4627 236.618 47.103 236.445 46.661L237.173 46.232C237.294 46.57 237.511 46.8387 237.823 47.038C238.143 47.2287 238.52 47.324 238.954 47.324C239.378 47.324 239.734 47.2417 240.02 47.077C240.306 46.9037 240.449 46.6393 240.449 46.284C240.449 45.9893 240.319 45.7553 240.059 45.582C239.799 45.4087 239.482 45.2743 239.11 45.179C238.737 45.0837 238.364 44.9797 237.992 44.867C237.619 44.7457 237.303 44.5507 237.043 44.282C236.783 44.0047 236.653 43.645 236.653 43.203C236.653 42.6743 236.861 42.2323 237.277 41.877C237.701 41.5217 238.234 41.344 238.876 41.344C239.404 41.344 239.868 41.4653 240.267 41.708C240.665 41.942 240.96 42.2627 241.151 42.67L240.436 43.086C240.184 42.4793 239.664 42.176 238.876 42.176C238.503 42.176 238.182 42.267 237.914 42.449C237.645 42.6223 237.511 42.8737 237.511 43.203Z" fill="#B3B6B9"/>
</svg>
